<svg xmlns="http://www.w3.org/2000/svg" width="770" height="620"><rect width="770" height="620" x="0" y="0" fill="#FFFFFF" id="background"/><g id="viz"><g transform="translate(0,0)"><g id="pie" transform="translate(335,302.5)"><path fill="#1d9e75" stroke="#FFFFFF" d="M1.791045943753004e-14,-292.5A292.5,292.5,0,0,1,289.039460853856,44.86022814601213L190.22255116023,29.523398010623367A192.5,192.5,0,0,0,1.1787225441793275e-14,-192.5Z"/><path fill="#ad4032" stroke="#FFFFFF" d="M289.039460853856,44.86022814601213A292.5,292.5,0,1,1,-282.06805827085503,-77.42002650031537L-185.6345340756909,-50.95164137200243A192.5,192.5,0,1,0,190.22255116023,29.523398010623367Z"/><path fill="#3266ad" stroke="#FFFFFF" d="M-282.06805827085503,-77.42002650031537A292.5,292.5,0,0,1,-5.3731378312590116e-14,-292.5L-3.5361676325379825e-14,-192.5A192.5,192.5,0,0,0,-185.6345340756909,-50.95164137200243Z"/></g><text y="6" x="335" style="font-family: Arial, sans-serif; font-size: 12px; fill: black; font-weight: bold; dominant-baseline: auto; text-anchor: middle;"/></g></g><g id="legend" transform="translate(670,10)"><g transform="translate(5,0)"><g class="legendColor" transform="translate(0,0)"><g class="legendCells" transform="translate(0,16)"><g class="cell" transform="translate(0, 0)"><rect class="swatch" height="15" width="15" style="fill: rgb(29, 158, 117);"/><text class="label" transform="translate( 20, 12.5)" font-family="&quot;Arial&quot;, sans-serif" font-size="10px"><tspan x="0" dy="0em">Ciencia y</tspan><tspan x="0" dy="1.2em">Tecnología</tspan></text></g><g class="cell" transform="translate(0, 36.599998474121094)"><rect class="swatch" height="15" width="15" style="fill: rgb(173, 64, 50);"/><text class="label" transform="translate( 20, 12.5)" font-family="&quot;Arial&quot;, sans-serif" font-size="10px"><tspan x="0" dy="0em">Comunicación</tspan><tspan x="0" dy="1.2em">y</tspan><tspan x="0" dy="1.2em">Estrategia</tspan></text></g><g class="cell" transform="translate(0, 88.79999923706055)"><rect class="swatch" height="15" width="15" style="fill: rgb(50, 102, 173);"/><text class="label" transform="translate( 20, 12.5)" font-family="&quot;Arial&quot;, sans-serif" font-size="10px"><tspan x="0" dy="0em">Morfología</tspan><tspan x="0" dy="1.2em">y Técnica</tspan></text></g></g><text class="legendTitle" font-family="&quot;Arial&quot;, sans-serif" font-size="12px" font-weight="bold"><tspan x="0" dy="0em">Arcs colors</tspan></text></g></g></g></svg>